# xmcd
#
# Track frame offsets:
#	150
#	24459
#	43404
#	63634
#	82747
#	104014
#	125874
#	142458
#	160539
#	179374
#	197044
#
# Disc length: 2822 seconds
#
# Revision: 0
# Processed by: cddbd v1.5.1PL2 Copyright (c) Steve Scherf et al.
# Submitted via: MusicManager 7.3.0.0 
#
DISCID=a40b040b
DTITLE=Joe Cocker - One night of sin
DYEAR=1900
DGENRE=blues
TTITLE0=When the night comes
TTITLE1=I will live for you
TTITLE2=Got to use my imagination
TTITLE3=Letting go
TTITLE4=Just to keep frok drowning
TTITLE5=Another mind gone
TTITLE6=Fever
TTITLE7=You just know it's gonna hurt
TTITLE8=Bad bad sign
TTITLE9=I'm your man
TTITLE10=One night of sin
EXTD=
EXTT0=
EXTT1=
EXTT2=
EXTT3=
EXTT4=
EXTT5=
EXTT6=
EXTT7=
EXTT8=
EXTT9=
EXTT10=
PLAYORDER=
